<?xml version="1.0" encoding="UTF-8"?>
<svg version="1.1" xmlns="http://www.w3.org/2000/svg" width="358" height="84">
<path d="M0 0 C118.14 0 236.28 0 358 0 C358 27.72 358 55.44 358 84 C239.86 84 121.72 84 0 84 C0 56.28 0 28.56 0 0 Z " fill="#323131" transform="translate(0,0)"/>
<path d="M0 0 C0 0.66 0 1.32 0 2 C-1.546875 2.0928125 -1.546875 2.0928125 -3.125 2.1875 C-7.54290311 3.11383452 -10.17159186 4.55822707 -13 8 C-17.14849105 15.19816215 -18.22501458 22.82058473 -19.421875 30.91601562 C-20.96505907 40.47444455 -24.44897286 48.64190824 -32 55 C-45.10711334 62.76661315 -56.84028543 65.17800839 -71.875 65.1875 C-72.91914062 65.19974609 -73.96328125 65.21199219 -75.0390625 65.22460938 C-76.03421875 65.22654297 -77.029375 65.22847656 -78.0546875 65.23046875 C-78.95687012 65.23457764 -79.85905273 65.23868652 -80.78857422 65.24291992 C-83 65 -83 65 -85 63 C-84.21496094 62.70867187 -83.42992188 62.41734375 -82.62109375 62.1171875 C-69.86876329 57.14143156 -64.06841419 51.08856539 -58.48046875 38.60546875 C-55.83673479 32.86373134 -55.83673479 32.86373134 -55.25 26.7421875 C-57.06891765 22.51699338 -61.40964048 20.62381382 -65.375 18.75 C-78.01333265 14.06429617 -90.88326173 17.43371328 -103 22 C-103.94617188 22.57105469 -104.89234375 23.14210938 -105.8671875 23.73046875 C-106.92292969 24.35888672 -106.92292969 24.35888672 -108 25 C-108.66 24.67 -109.32 24.34 -110 24 C-98.67781645 10.35746773 -84.11419447 -0.24701344 -66 -2 C-57.97874345 -2.47651029 -51.57423362 -1.56011749 -44 1 C-38.89730738 2.45791218 -36.37746189 1.93873095 -31.75 -0.375 C-30.50476563 -1.06722656 -30.50476563 -1.06722656 -29.234375 -1.7734375 C-19.97874129 -6.85432733 -9.07799949 -4.07509396 0 0 Z " fill="#FD6702" transform="translate(125,12)"/>
<path d="M0 0 C3.08486491 2.64416993 4.41617479 4.49939506 4.8996582 8.55249023 C4.92792885 11.26462241 4.94674438 13.97519958 4.9375 16.6875 C4.95361328 17.62916016 4.96972656 18.57082031 4.98632812 19.54101562 C4.98986699 24.55558985 4.99057616 28.23091391 1.625 32.25 C-2.7700989 35.04688112 -8.33691465 34.9478429 -13.375 34.25 C-16.17518787 32.33767658 -17.06476281 31.18071157 -18.125 28 C-18.2075 27.4225 -18.29 26.845 -18.375 26.25 C-15 26.125 -15 26.125 -11.375 26.25 C-10.715 26.91 -10.055 27.57 -9.375 28.25 C-6.77219432 27.92958603 -6.77219432 27.92958603 -4.375 27.25 C-4.045 25.93 -3.715 24.61 -3.375 23.25 C-4.035 23.58 -4.695 23.91 -5.375 24.25 C-9.55644011 24.64447548 -11.68446048 24.70035186 -15.25 22.375 C-18.68182362 18.94317638 -18.56023125 16.70340039 -18.625 11.9375 C-18.65078125 10.80699219 -18.6765625 9.67648438 -18.703125 8.51171875 C-18.34367173 4.93858205 -17.48280338 3.11909845 -15.375 0.25 C-10.71523132 -3.37426453 -4.87179559 -2.52611623 0 0 Z " fill="#F46403" transform="translate(290.375,48.75)"/>
<path d="M0 0 C1.66611905 -0.042721 3.33382885 -0.04063832 5 0 C7.04698414 2.04698414 6.70045693 6.30411241 7 9 C7.66 8.34 8.32 7.68 9 7 C12.00922309 6.65467932 14.09325299 6.43758343 17 7 C19.69105198 9.17574416 21.45532928 10.91065856 23 14 C23.93762008 24.40604586 23.93762008 24.40604586 21.125 29.1875 C17.1452411 32.58200024 13.79317663 32.32629867 8.70703125 32.29296875 C5.11556825 31.90428228 3.36959176 30.68553733 1 28 C-0.35700647 25.28598706 -0.1123861 23.15153684 -0.09765625 20.1171875 C-0.09443359 18.95058594 -0.09121094 17.78398438 -0.08789062 16.58203125 C-0.07951172 15.35871094 -0.07113281 14.13539062 -0.0625 12.875 C-0.05798828 11.64394531 -0.05347656 10.41289063 -0.04882812 9.14453125 C-0.0370133 6.09630608 -0.02054028 3.04817686 0 0 Z " fill="#FAFAFA" transform="translate(126,41)"/>
<path d="M0 0 C1.66611905 -0.042721 3.33382885 -0.04063832 5 0 C7.59199171 2.59199171 6.28352101 9.76865753 6.3125 13.25 C6.34150391 14.39597656 6.37050781 15.54195312 6.40039062 16.72265625 C6.46458995 25.20684437 6.46458995 25.20684437 4.10546875 29.234375 C0.13886025 32.56073315 -3.24754064 32.38853184 -8.29296875 32.35546875 C-11 32 -11 32 -14.125 29.6875 C-17.55853417 24.76610103 -17.67864675 19.82731342 -17 14 C-15.68648567 10.8874068 -14.09444052 8.54722026 -11 7 C-9.125 6.83203125 -9.125 6.83203125 -7 6.8125 C-6.29875 6.79832031 -5.5975 6.78414062 -4.875 6.76953125 C-3 7 -3 7 -1 9 C-0.67 6.03 -0.34 3.06 0 0 Z " fill="#FBFBFB" transform="translate(194,41)"/>
<path d="M0 0 C0 0.66 0 1.32 0 2 C-1.546875 2.0928125 -1.546875 2.0928125 -3.125 2.1875 C-7.54345552 3.11395035 -10.17051648 4.55876424 -13 8 C-16.71803754 14.43204449 -18.00955024 21.177377 -19.125 28.4375 C-19.43291324 30.39567552 -19.74767818 32.35278981 -20.0703125 34.30859375 C-20.20195801 35.16251709 -20.33360352 36.01644043 -20.46923828 36.89624023 C-21 39 -21 39 -23 41 C-22.94199219 40.12859375 -22.88398437 39.2571875 -22.82421875 38.359375 C-22.39003331 26.89687947 -24.6100135 18.56318569 -32.1875 9.8125 C-34.80526447 7.01412999 -34.80526447 7.01412999 -38 5 C-37 2 -37 2 -34.8203125 0.6484375 C-33.93085937 0.22820313 -33.04140625 -0.19203125 -32.125 -0.625 C-30.79855469 -1.26308594 -30.79855469 -1.26308594 -29.4453125 -1.9140625 C-19.57434068 -6.29765701 -9.53265031 -4.27918571 0 0 Z " fill="#FAF8F7" transform="translate(125,12)"/>
<path d="M0 0 C2.31 0 4.62 0 7 0 C7.99 4.29 8.98 8.58 10 13 C11.64561349 8.08043989 11.64561349 8.08043989 13.125 3.125 C13.41375 2.09375 13.7025 1.0625 14 0 C16.31 0 18.62 0 21 0 C23.29612756 9.41002278 23.29612756 9.41002278 23 14 C23.66 14 24.32 14 25 14 C25.13277344 13.15695313 25.26554687 12.31390625 25.40234375 11.4453125 C25.57894531 10.34960938 25.75554687 9.25390625 25.9375 8.125 C26.19853516 6.48917969 26.19853516 6.48917969 26.46484375 4.8203125 C27 2 27 2 28 0 C29.98 0 31.96 0 34 0 C32.48565898 8.46835441 30.27628663 16.71254868 28 25 C25.69 25 23.38 25 21 25 C19.07091057 19.76390013 18.01591421 14.46864457 17 9 C16.79503906 9.98742188 16.59007812 10.97484375 16.37890625 11.9921875 C16.10949219 13.27351563 15.84007812 14.55484375 15.5625 15.875 C15.29566406 17.15117188 15.02882812 18.42734375 14.75390625 19.7421875 C14 23 14 23 13 25 C11.02 25 9.04 25 7 25 C4.80623444 20.14731516 3.13939486 15.40268898 1.8125 10.25 C1.54663086 9.26193359 1.54663086 9.26193359 1.27539062 8.25390625 C0.52908485 5.41275764 0 2.95113111 0 0 Z " fill="#F56403" transform="translate(202,48)"/>
<path d="M0 0 C2.23046875 0.828125 2.23046875 0.828125 4 2 C5.25 5.125 5.25 5.125 6 8 C3.125 8.125 3.125 8.125 0 8 C-0.66 7.34 -1.32 6.68 -2 6 C-3.98821313 5.60235737 -5.98944339 5.26224651 -8 5 C-7.67 5.99 -7.34 6.98 -7 8 C-4.76763884 8.91849826 -4.76763884 8.91849826 -2.125 9.5 C1.42992302 10.37059339 3.7720337 10.99079877 6 14 C6.65439093 20.10764873 6.65439093 20.10764873 4.625 22.875 C-0.04390616 26.10731965 -5.52336667 25.66361336 -11 25 C-14.25 22.6875 -14.25 22.6875 -16 20 C-16 19.01 -16 18.02 -16 17 C-13.69 17 -11.38 17 -9 17 C-8.67 17.66 -8.34 18.32 -8 19 C-5.69 19 -3.38 19 -1 19 C-1 18.34 -1 17.68 -1 17 C-1.67546875 16.82984375 -2.3509375 16.6596875 -3.046875 16.484375 C-12.54630552 13.90360486 -12.54630552 13.90360486 -15 10 C-15.5625 7 -15.5625 7 -15 4 C-11.07980635 -0.96557862 -5.8617651 -0.81969398 0 0 Z " fill="#F46403" transform="translate(312,48)"/>
<path d="M0 0 C4.51315789 2.02631579 4.51315789 2.02631579 6 5 C6.08372659 6.52148326 6.10730027 8.04655778 6.09765625 9.5703125 C6.09443359 10.46621094 6.09121094 11.36210938 6.08789062 12.28515625 C6.07951172 13.22230469 6.07113281 14.15945312 6.0625 15.125 C6.05798828 16.06988281 6.05347656 17.01476562 6.04882812 17.98828125 C6.03702357 20.32558387 6.02055759 22.66276061 6 25 C4.33388095 25.042721 2.66617115 25.04063832 1 25 C-1.31082848 22.68917152 -0.46196809 16.37191671 -0.60546875 13.08203125 C-0.42699095 9.22526907 -0.42699095 9.22526907 -2 6 C-4.5 5.83333333 -4.5 5.83333333 -7 6 C-8.51421001 7.51421001 -8.21309856 8.92472768 -8.31640625 11.03515625 C-8.35830078 11.84404297 -8.40019531 12.65292969 -8.44335938 13.48632812 C-8.48267578 14.33646484 -8.52199219 15.18660156 -8.5625 16.0625 C-8.60568359 16.91650391 -8.64886719 17.77050781 -8.69335938 18.65039062 C-8.79976702 20.76672037 -8.90041731 22.88333813 -9 25 C-11.31 25 -13.62 25 -16 25 C-16.08120751 22.10359882 -16.14059421 19.20949088 -16.1875 16.3125 C-16.21263672 15.49587891 -16.23777344 14.67925781 -16.26367188 13.83789062 C-16.32173421 9.0574247 -16.16104605 5.85367618 -13 2 C-8.75354956 -0.83096696 -4.98585744 -0.53277903 0 0 Z " fill="#F66403" transform="translate(263,48)"/>
<path d="M0 0 C3.82206179 4.65294479 4.37029972 8.72999684 4.2734375 14.62890625 C3.64136557 20.10987282 0.96866628 24.37850203 -2.9375 28.1875 C-10.96429241 34.47830519 -20.9936781 36.77941976 -31 37 C-28.41568813 35.27712542 -25.98372548 34.00615011 -23.1875 32.6875 C-9.42186114 25.77471183 -5.1297697 13.64300453 0 0 Z " fill="#FAF6F3" transform="translate(71,39)"/>
<path d="M0 0 C0 2.31 0 4.62 0 7 C-0.969375 7.12375 -1.93875 7.2475 -2.9375 7.375 C-4.4534375 7.684375 -4.4534375 7.684375 -6 8 C-7.52106634 11.04213267 -7.37429338 14.28047572 -7.5625 17.625 C-7.60568359 18.33140625 -7.64886719 19.0378125 -7.69335938 19.765625 C-7.79944751 21.51018537 -7.90022889 23.25506697 -8 25 C-9.98 25 -11.96 25 -14 25 C-14.10829314 22.10315842 -14.18743954 19.21038981 -14.25 16.3125 C-14.28351563 15.49587891 -14.31703125 14.67925781 -14.3515625 13.83789062 C-14.41860602 9.69795338 -14.36770042 7.58105745 -12.1015625 4 C-8.12905982 0.219477 -5.47123411 -0.24869246 0 0 Z " fill="#F7F7F7" transform="translate(176,48)"/>
<path d="M0 0 C1.65 0 3.3 0 5 0 C7 2 7 2 7.22705078 4.33837891 C7.21657715 5.29147949 7.20610352 6.24458008 7.1953125 7.2265625 C7.18886719 8.2578125 7.18242187 9.2890625 7.17578125 10.3515625 C7.15902344 11.43179688 7.14226562 12.51203125 7.125 13.625 C7.11597656 14.71296875 7.10695312 15.8009375 7.09765625 16.921875 C7.07403409 19.61480152 7.04109556 22.30729255 7 25 C4.69 25 2.38 25 0 25 C0 16.75 0 8.5 0 0 Z " fill="#F26303" transform="translate(238,48)"/>
<path d="M0 0 C1.65 0 3.3 0 5 0 C6 1 6 1 6.11352539 3.31665039 C6.10828857 4.31688232 6.10305176 5.31711426 6.09765625 6.34765625 C6.09282227 7.96704102 6.09282227 7.96704102 6.08789062 9.61914062 C6.07951172 10.75544922 6.07113281 11.89175781 6.0625 13.0625 C6.05798828 14.20267578 6.05347656 15.34285156 6.04882812 16.51757812 C6.03699747 19.34510351 6.0205141 22.1725264 6 25 C4.02 25 2.04 25 0 25 C0 16.75 0 8.5 0 0 Z " fill="#FEFEFE" transform="translate(152,48)"/>
<path d="M0 0 C2.5 0.5 2.5 0.5 4.3125 2.0625 C5.94489575 5.41320706 5.89469235 7.81620474 5.5 11.5 C4.3125 13.9375 4.3125 13.9375 2.5 15.5 C0 16 0 16 -2.5 15.5 C-5.2489728 13.13019586 -5.48650259 11.62597587 -5.875 8 C-5.39092529 3.48196934 -4.70430977 0.94086195 0 0 Z " fill="#3E3E3E" transform="translate(188.5,52.5)"/>
<path d="M0 0 C2.5 0.5 2.5 0.5 4.3125 2.125 C6.16448804 5.82897608 5.93975204 8.87291744 4.875 12.8125 C3.5 14.5 3.5 14.5 0.375 15.25 C-1.048125 15.37375 -1.048125 15.37375 -2.5 15.5 C-4.95622327 12.94143409 -5.49007552 11.59262844 -5.875 8 C-5.39092529 3.48196934 -4.70430977 0.94086195 0 0 Z " fill="#3B3B3B" transform="translate(137.5,52.5)"/>
<path d="M0 0 C2.4375 -0.375 2.4375 -0.375 5 0 C7.13727386 1.61822163 7.91325823 2.4851456 8.36328125 5.15625 C8.34652344 5.9296875 8.32976562 6.703125 8.3125 7.5 C8.30863281 8.2734375 8.30476563 9.046875 8.30078125 9.84375 C8 12 8 12 6 15 C3 15.375 3 15.375 0 15 C-2.08133467 11.877998 -2.2737822 11.06733011 -2.25 7.5 C-2.25773437 6.33984375 -2.25773437 6.33984375 -2.265625 5.15625 C-2 3 -2 3 0 0 Z " fill="#37322F" transform="translate(280,53)"/>
<path d="M0 0 C0 1.32 0 2.64 0 4 C-2.31 4 -4.62 4 -7 4 C-7.33 3.01 -7.66 2.02 -8 1 C-10.31 1 -12.62 1 -15 1 C-15 0.67 -15 0.34 -15 0 C-9.65370398 -1.0024305 -5.37625234 -0.84888195 0 0 Z " fill="#42352C" transform="translate(311,64)"/>
<path d="M0 0 C1.98 0 3.96 0 6 0 C6.33 1.65 6.66 3.3 7 5 C4.69 5 2.38 5 0 5 C0 3.35 0 1.7 0 0 Z " fill="#E35F07" transform="translate(238,41)"/>
<path d="M0 0 C2.875 -0.125 2.875 -0.125 6 0 C8 2 8 2 8 5 C5.69 4.67 3.38 4.34 1 4 C0.67 2.68 0.34 1.36 0 0 Z " fill="#3F342D" transform="translate(304,53)"/>
<path d="M0 0 C1.98 0 3.96 0 6 0 C6 1.65 6 3.3 6 5 C4.02 5 2.04 5 0 5 C0 3.35 0 1.7 0 0 Z " fill="#FBFBFB" transform="translate(152,41)"/>
<path d="M0 0 C0.66 0.33 1.32 0.66 2 1 C-0.31 3.31 -2.62 5.62 -5 8 C-4.67 8.66 -4.34 9.32 -4 10 C-5.98 10.66 -7.96 11.32 -10 12 C-7.11954533 7.34695784 -3.96084779 3.78080926 0 0 Z " fill="#E15F08" transform="translate(25,25)"/>
</svg>
