<?xml version="1.0" encoding="UTF-8"?>
<svg version="1.1" xmlns="http://www.w3.org/2000/svg" width="187" height="52">
<path d="M0 0 C61.71 0 123.42 0 187 0 C187 17.16 187 34.32 187 52 C125.29 52 63.58 52 0 52 C0 34.84 0 17.68 0 0 Z " fill="#FDFCFB" transform="translate(0,0)"/>
<path d="M0 0 C-0.99 0.66 -1.98 1.32 -3 2 C-8.42981378 5.93661499 -8.95943881 10.22914982 -10.265625 16.63671875 C-12.01182185 24.63392881 -14.10876929 30.35896707 -21 35 C-21.825 35.5775 -22.65 36.155 -23.5 36.75 C-29.0967935 39.54839675 -35.26549097 39.12583622 -41.375 39.0625 C-42.62216797 39.05573242 -42.62216797 39.05573242 -43.89453125 39.04882812 C-45.92971897 39.03713164 -47.96486923 39.01919935 -50 39 C-48 37 -48 37 -44.75 35.4375 C-37.75222452 31.50125129 -34.64467816 24.04676278 -32.4453125 16.65234375 C-32.29835937 16.10707031 -32.15140625 15.56179687 -32 15 C-38.76633446 11.51431255 -45.42398548 10.02353591 -53 11 C-55.75502461 11.92091032 -58.34067592 12.98762777 -60.96875 14.22265625 C-61.6390625 14.47917969 -62.309375 14.73570313 -63 15 C-63.66 14.67 -64.32 14.34 -65 14 C-63.3547485 12.30635875 -61.69156935 10.64646083 -60 9 C-58.7315625 7.7625 -58.7315625 7.7625 -57.4375 6.5 C-50.87137451 1.18295751 -42.66325708 -1.74345876 -34.24609375 -1.3125 C-31.07095233 -0.87074119 -28.07581795 0.11274482 -25 1 C-21.85397217 0.74831777 -19.50042006 0.22387213 -16.625 -1.0625 C-10.83124938 -3.13169665 -5.57824561 -2.23129824 0 0 Z " fill="#FD6906" transform="translate(67,7)"/>
<path d="M0 0 C7.14893617 -0.56737589 7.14893617 -0.56737589 11 2 C11.70052461 4.663063 11.77744818 7.24035737 12 10 C13.65 10 15.3 10 17 10 C17 10.66 17 11.32 17 12 C18.65 12 20.3 12 22 12 C21.67 11.34 21.34 10.68 21 10 C18.67793475 9.29508733 16.34406932 8.62787571 14 8 C13 7 13 7 12.8125 4.5625 C13 2 13 2 15 0 C17.68839385 -0.26991906 20.29141936 -0.08737357 23 0 C23.66 1.32 24.32 2.64 25 4 C22.36 3.67 19.72 3.34 17 3 C17 3.66 17 4.32 17 5 C17.928125 5.12375 18.85625 5.2475 19.8125 5.375 C23 6 23 6 26 8 C25.25 12.75 25.25 12.75 23 15 C21.125 15.265625 21.125 15.265625 19 15.25 C18.29875 15.25515625 17.5975 15.2603125 16.875 15.265625 C15 15 15 15 13 13 C12.3503125 14.7015625 12.3503125 14.7015625 11.6875 16.4375 C11.130625 17.613125 10.57375 18.78875 10 20 C6.52674819 21.1577506 3.63932552 21.06866652 0 21 C-0.66 19.35 -1.32 17.7 -2 16 C0.64 16.33 3.28 16.66 6 17 C6 16.34 6 15.68 6 15 C5.236875 15.061875 4.47375 15.12375 3.6875 15.1875 C1 15 1 15 -0.6484375 13.76953125 C-2.35714006 11.53241489 -2.37290668 10.2880007 -2.3125 7.5 C-2.30863281 6.7265625 -2.30476562 5.953125 -2.30078125 5.15625 C-2 3 -2 3 0 0 Z " fill="#FF6E0E" transform="translate(158,29)"/>
<path d="M0 0 C1.32 0 2.64 0 4 0 C4.33 1.32 4.66 2.64 5 4 C6.3921875 3.87625 6.3921875 3.87625 7.8125 3.75 C11 4 11 4 12.875 5.5625 C14.42190908 8.91413635 14.39126176 11.34822358 14 15 C12.9375 17.4375 12.9375 17.4375 11 19 C7.47488523 19.44865097 5.04496145 19.48086722 1.79296875 17.984375 C-0.96005151 14.93745933 -0.42625244 11.69344326 -0.25 7.8125 C-0.23195313 7.06291016 -0.21390625 6.31332031 -0.1953125 5.54101562 C-0.14824109 3.6934629 -0.07649766 1.84656841 0 0 Z " fill="#3A3A3A" transform="translate(68,25)"/>
<path d="M0 0 C1.32 0 2.64 0 4 0 C4.10826289 2.4178712 4.18739789 4.83087556 4.25 7.25 C4.30027344 8.27287109 4.30027344 8.27287109 4.3515625 9.31640625 C4.41834512 12.75571098 4.26123254 14.6425838 2.20703125 17.453125 C-0.99829237 19.69968811 -3.18717398 19.55459288 -7 19 C-9.30089518 17.21866179 -9.86901281 15.9169103 -10.27734375 13.05859375 C-10.41687604 10.02795242 -10.3824522 7.64413003 -8.8125 5 C-6.41135091 3.67522809 -4.69969684 3.71582139 -2 4 C-1.67 4.33 -1.34 4.66 -1 5 C-0.67 3.35 -0.34 1.7 0 0 Z " fill="#3A3A3A" transform="translate(109,25)"/>
<path d="M0 0 C-0.99 0.66 -1.98 1.32 -3 2 C-8.4735973 5.96835804 -9.10026324 10.44618221 -10.32421875 16.94140625 C-10.91897787 19.63329292 -11.6369488 21.6277109 -13 24 C-13.08636719 23.21496094 -13.17273437 22.42992188 -13.26171875 21.62109375 C-14.19018279 14.6789085 -15.31849955 10.266688 -20 5 C-20.66 4.67 -21.32 4.34 -22 4 C-21 1 -21 1 -17.9375 -0.6875 C-11.77725573 -3.08595576 -6.12046232 -2.44818493 0 0 Z " fill="#3B3836" transform="translate(67,7)"/>
<path d="M0 0 C1.32 0 2.64 0 4 0 C4.33 2.31 4.66 4.62 5 7 C5.66 7 6.32 7 7 7 C7.33 4.69 7.66 2.38 8 0 C9.32 0 10.64 0 12 0 C12.66 2.31 13.32 4.62 14 7 C14.99 4.69 15.98 2.38 17 0 C17.99 0 18.98 0 20 0 C19 5 18 10 17 15 C15.35 15 13.7 15 12 15 C11.34 12.03 10.68 9.06 10 6 C9.34 8.97 8.68 11.94 8 15 C6.68 15 5.36 15 4 15 C2.24265549 10.02638346 0.67415387 5.2584002 0 0 Z " fill="#FF7011" transform="translate(114,29)"/>
<path d="M0 0 C2.01822917 0.06510417 4.03645833 0.13020833 6.0546875 0.1953125 C6.7146875 1.5153125 7.3746875 2.8353125 8.0546875 4.1953125 C5.4146875 3.8653125 2.7746875 3.5353125 0.0546875 3.1953125 C0.0546875 3.8553125 0.0546875 4.5153125 0.0546875 5.1953125 C0.9828125 5.3190625 1.9109375 5.4428125 2.8671875 5.5703125 C6.0546875 6.1953125 6.0546875 6.1953125 9.0546875 8.1953125 C8.3046875 12.9453125 8.3046875 12.9453125 6.0546875 15.1953125 C4.1796875 15.4609375 4.1796875 15.4609375 2.0546875 15.4453125 C1.3534375 15.45046875 0.6521875 15.455625 -0.0703125 15.4609375 C-1.9453125 15.1953125 -1.9453125 15.1953125 -3.9453125 13.1953125 C-4.6053125 14.5153125 -5.2653125 15.8353125 -5.9453125 17.1953125 C-5.9453125 13.2353125 -5.9453125 9.2753125 -5.9453125 5.1953125 C-5.6153125 5.1953125 -5.2853125 5.1953125 -4.9453125 5.1953125 C-4.9453125 6.8453125 -4.9453125 8.4953125 -4.9453125 10.1953125 C-3.2953125 10.1953125 -1.6453125 10.1953125 0.0546875 10.1953125 C0.0546875 10.8553125 0.0546875 11.5153125 0.0546875 12.1953125 C1.7046875 12.1953125 3.3546875 12.1953125 5.0546875 12.1953125 C4.7246875 11.5353125 4.3946875 10.8753125 4.0546875 10.1953125 C1.73262225 9.49039983 -0.60124318 8.82318821 -2.9453125 8.1953125 C-3.9453125 7.1953125 -3.9453125 7.1953125 -4.1328125 4.7578125 C-3.90410521 1.63214619 -3.25878946 0.3271877 0 0 Z " fill="#FF771D" transform="translate(174.9453125,28.8046875)"/>
<path d="M0 0 C2 2 2 2 2.1953125 5.0390625 C2.17210937 6.22242188 2.14890625 7.40578125 2.125 8.625 C2.10695312 9.81351563 2.08890625 11.00203125 2.0703125 12.2265625 C2.04710937 13.14179687 2.02390625 14.05703125 2 15 C0.68 14.67 -0.64 14.34 -2 14 C-2.33 10.7 -2.66 7.4 -3 4 C-3.99 4 -4.98 4 -6 4 C-6.33 7.63 -6.66 11.26 -7 15 C-8.32 15 -9.64 15 -11 15 C-11.08107583 13.06318839 -11.13922475 11.1254066 -11.1875 9.1875 C-11.22230469 8.10855469 -11.25710937 7.02960937 -11.29296875 5.91796875 C-11 3 -11 3 -9.7421875 1.1328125 C-6.54635014 -0.94519834 -3.72815801 -0.29588556 0 0 Z " fill="#FF7112" transform="translate(152,29)"/>
<path d="M0 0 C2.1367793 2.31484424 2.95843145 3.72683526 3.4375 6.875 C2.80437627 11.39731235 1.05954733 14.39416483 -2.578125 17.23046875 C-6.65122969 19.77157235 -10.24246891 20.61163011 -15 21 C-14.29875 20.505 -13.5975 20.01 -12.875 19.5 C-6.62590955 14.0660083 -3.00649397 7.64003173 0 0 Z " fill="#423A35" transform="translate(35,24)"/>
<path d="M0 0 C0 1.32 0 2.64 0 4 C-0.99 4.33 -1.98 4.66 -3 5 C-3.33 8.3 -3.66 11.6 -4 15 C-5.32 15 -6.64 15 -8 15 C-8.10807131 13.06372231 -8.1856225 11.12572244 -8.25 9.1875 C-8.29640625 8.10855469 -8.3428125 7.02960937 -8.390625 5.91796875 C-8 3 -8 3 -6.234375 1.11328125 C-4 0 -4 0 0 0 Z " fill="#414141" transform="translate(98,29)"/>
<path d="M0 0 C1.32 0.33 2.64 0.66 4 1 C4 5.62 4 10.24 4 15 C2.68 15 1.36 15 0 15 C0 10.05 0 5.1 0 0 Z " fill="#FF771D" transform="translate(136,29)"/>
<path d="M0 0 C1.32 0.33 2.64 0.66 4 1 C4 5.62 4 10.24 4 15 C2.68 15 1.36 15 0 15 C0 10.05 0 5.1 0 0 Z " fill="#414141" transform="translate(84,29)"/>
<path d="M0 0 C3.53571429 0.53571429 3.53571429 0.53571429 5 2 C5.1875 4.4375 5.1875 4.4375 5 7 C4.34 7.66 3.68 8.32 3 9 C-0.53571429 8.46428571 -0.53571429 8.46428571 -2 7 C-2.1875 4.5625 -2.1875 4.5625 -2 2 C-1.34 1.34 -0.68 0.68 0 0 Z " fill="#FFEFE4" transform="translate(161,32)"/>
<path d="M0 0 C1.67542976 0.28604898 3.34385343 0.61781233 5 1 C5.125 6.75 5.125 6.75 4 9 C2.35 8.67 0.7 8.34 -1 8 C-1.04241723 5.66705225 -1.04092937 3.33297433 -1 1 C-0.67 0.67 -0.34 0.34 0 0 Z " fill="#EFEFEF" transform="translate(73,32)"/>
<path d="M0 0 C1.32 0 2.64 0 4 0 C5.125 6.75 5.125 6.75 4 9 C2.35 8.67 0.7 8.34 -1 8 C-1.04241723 5.66705225 -1.04092937 3.33297433 -1 1 C-0.67 0.67 -0.34 0.34 0 0 Z " fill="#F0F0F0" transform="translate(104,32)"/>
</svg>
